<?xml version="1.0" standalone="no"?><!DOCTYPE svg PUBLIC "-//W3C//DTD SVG 1.1//EN" "http://www.w3.org/Graphics/SVG/1.1/DTD/svg11.dtd"><svg t="1529054336518" class="icon" style="" viewBox="0 0 1024 1024" version="1.1" xmlns="http://www.w3.org/2000/svg" p-id="4063" xmlns:xlink="http://www.w3.org/1999/xlink" width="200" height="200"><defs><style type="text/css"></style></defs><path d="M879.67657795 103.97327177H617.05045085V51.44804636a52.52522541 52.52522541 0 0 0-52.52522544-52.52522544h-105.05045082a52.52522541 52.52522541 0 0 0-52.52522544 52.52522544v52.52522541H144.32342205a52.52522541 52.52522541 0 0 0-52.52522542 52.52522542v52.52522542h840.40360674v-52.52522542a52.52522541 52.52522541 0 0 0-52.52522542-52.52522542zM144.32342205 961.88528698a52.52522541 52.52522541 0 0 0 52.52522542 52.52522544h630.30270506a52.52522541 52.52522541 0 0 0 52.52522542-52.52522544V261.54894804H144.32342205v700.33633894z m525.25225421-542.76066268a52.52522541 52.52522541 0 1 1 105.05045084 0v437.71021185a52.52522541 52.52522541 0 1 1-105.05045084 0V419.1246243z m-210.10090167 0a52.52522541 52.52522541 0 1 1 105.05045082 0v437.71021185a52.52522541 52.52522541 0 1 1-105.05045082 0V419.1246243z m-210.10090169 0a52.52522541 52.52522541 0 1 1 105.05045084 0v437.71021185a52.52522541 52.52522541 0 1 1-105.05045084 0V419.1246243z" fill="" p-id="4064"></path></svg>