<?xml version="1.0" standalone="no"?><!DOCTYPE svg PUBLIC "-//W3C//DTD SVG 1.1//EN" "http://www.w3.org/Graphics/SVG/1.1/DTD/svg11.dtd"><svg t="1533373676589" class="icon" style="" viewBox="0 0 1024 1024" version="1.1" xmlns="http://www.w3.org/2000/svg" p-id="1855" xmlns:xlink="http://www.w3.org/1999/xlink" width="200" height="200"><defs><style type="text/css"></style></defs><path d="M636.58666666 360.10666667a27.30666667 27.30666667 0 0 0 27.30666667-27.30666666v-218.45333334c0-45.16522667-36.75477333-81.92-81.92-81.92h-491.52C45.28810666 32.42666667 8.53333333 69.18144001 8.53333333 114.34666667v655.36c0 40.74154667 29.32736 85.1968 66.73749333 101.19850667l281.91402667 120.80469333c9.72117333 4.15061333 19.60618667 6.22592 29.05429333 6.22592 11.63264 0 22.71914667-3.16757333 32.16725333-9.39349333 17.14858667-11.30496 27.0336-31.40266667 27.0336-55.05024v-81.92h136.53333334c45.16522667 0 81.92-36.75477333 81.92-81.92v-218.45333333a27.30666667 27.30666667 0 0 0-54.61333334 0v218.45333333a27.30666667 27.30666667 0 0 1-27.30666666 27.30666667H445.43999999v-518.82666667c0-40.74154667-29.32736-85.1968-66.73749333-101.19850667L168.87807999 86.98538667H581.97333333a27.30666667 27.30666667 0 0 1 27.30666666 27.30666667v218.45333333a27.30666667 27.30666667 0 0 0 27.30666667 27.30666667zM357.18485333 227.17781334c17.58549333 7.53664 33.64181333 31.89418667 33.64181333 51.00885333v655.36c0 5.67978667-1.52917333 8.84736-2.4576 9.44810667s-4.42368 0.76458667-9.66656-1.47456l-281.91402667-120.80469333C79.20298666 813.17888001 63.14666666 788.87594667 63.14666666 769.70666667v-655.36c0-4.31445333 0.98304-8.35584 2.78528-12.01493333l291.25290667 124.84608z" fill="" p-id="1856"></path><path d="M1010.90645333 422.69354667l-163.84-163.84a27.30666667 27.30666667 0 0 0-38.61162667 38.61162667l117.20021333 117.20021333H581.97333333a27.30666667 27.30666667 0 0 0 0 54.61333334h343.68170666l-117.20021333 117.20021333a27.30666667 27.30666667 0 0 0 38.66624 38.61162667l163.84-163.84a27.30666667 27.30666667 0 0 0 0-38.61162667z" fill="" p-id="1857"></path></svg>