<?xml version="1.0" standalone="no"?><!DOCTYPE svg PUBLIC "-//W3C//DTD SVG 1.1//EN" "http://www.w3.org/Graphics/SVG/1.1/DTD/svg11.dtd"><svg t="1529054314691" class="icon" style="" viewBox="0 0 1024 1024" version="1.1" xmlns="http://www.w3.org/2000/svg" p-id="3807" xmlns:xlink="http://www.w3.org/1999/xlink" width="200" height="200"><defs><style type="text/css"></style></defs><path d="M736 335.984v0c0 0.016 0 0.016 0 0z m0 352.032s0-0.016 0 0v-0.032 0.032z m-321.936-14.08c8.688 8.688 20.688 14.064 33.936 14.064s25.248-5.376 33.936-14.064l256-256a48 48 0 1 0-67.872-67.872L448 572.112l-110.064-110.064a48 48 0 0 0-67.872 67.888l144 144zM976 0H48a48 48 0 0 0-48 48v928a48 48 0 0 0 48 48h928a48 48 0 0 0 48-48V48a48 48 0 0 0-48-48z m-48 928H96V96h832v832z" fill="" p-id="3808"></path></svg>