<?xml version="1.0" standalone="no"?><!DOCTYPE svg PUBLIC "-//W3C//DTD SVG 1.1//EN" "http://www.w3.org/Graphics/SVG/1.1/DTD/svg11.dtd"><svg t="1529377003615" class="icon" style="" viewBox="0 0 1024 1024" version="1.1" xmlns="http://www.w3.org/2000/svg" p-id="1097" xmlns:xlink="http://www.w3.org/1999/xlink" width="200" height="200"><defs><style type="text/css"></style></defs><path d="M61.60216528 873.83253868L962.39783472 873.83253868c27.6620129 0 50.05665917-22.4333476 50.05665919-50.0379762 0-27.6620129-22.39464628-50.05665917-50.05665919-50.05665919l-900.79566944 0c-27.6620129 0-50.05665917 22.39464628-50.05665919 50.05665919C11.54550609 851.40052519 33.94015234 873.83253868 61.60216528 873.83253868z" p-id="1098"></path><path d="M474.90741137 689.39763517c20.50501623 20.50501623 53.7039452 20.50501623 74.18937464 0L994.29179283 244.26278881c20.48542806-20.50501623 20.48542806-53.6843584 1e-8-74.18937465-20.50501623-20.50501623-53.7039452-20.50501623-74.18937463 0l-408.09962086 408.04085909-408.10101957-408.04085909c-20.20421236-20.20421236-53.98516228-20.20421236-74.18937464 0-20.48542806 20.50501623-20.48542806 53.6843584 0 74.18937465L474.90741137 689.39763517z" p-id="1099"></path></svg>