<?xml version="1.0" standalone="no"?><!DOCTYPE svg PUBLIC "-//W3C//DTD SVG 1.1//EN" "http://www.w3.org/Graphics/SVG/1.1/DTD/svg11.dtd"><svg t="1529376766787" class="icon" style="" viewBox="0 0 1024 1024" version="1.1" xmlns="http://www.w3.org/2000/svg" p-id="1376" xmlns:xlink="http://www.w3.org/1999/xlink" width="200" height="200"><defs><style type="text/css"></style></defs><path d="M962.39783472 150.16746132L61.60216528 150.16746132c-27.6620129 0-50.05665917 22.4333476-50.05665919 50.03797619 0 27.6620129 22.39464628 50.05665917 50.05665919 50.0566592l900.79566944 0c27.6620129 0 50.05665917-22.39464628 50.05665919-50.0566592C1012.45449391 172.59947481 990.05984766 150.16746132 962.39783472 150.16746132z" p-id="1377"></path><path d="M549.09258863 334.60236483c-20.50501623-20.50501623-53.7039452-20.50501623-74.18937463 0L29.70820717 779.73721119c-20.48542806 20.50501623-20.48542806 53.6843584 0 74.18937465 20.50501623 20.50501623 53.7039452 20.50501623 74.18937462 0l408.09962086-408.04085908 408.10101957 408.04085908c20.20421236 20.20421236 53.98516228 20.20421236 74.18937464 0 20.48542806-20.50501623 20.48542806-53.6843584 0-74.18937465L549.09258863 334.60236483z" p-id="1378"></path></svg>